<?xml version="1.0" encoding="UTF-8" standalone="no"?>
<!DOCTYPE svg PUBLIC "-//W3C//DTD SVG 20010904//EN"
              "http://www.w3.org/TR/2001/REC-SVG-20010904/DTD/svg10.dtd">

<svg xmlns="http://www.w3.org/2000/svg"
     width="0.244444in" height="0.244444in"
     viewBox="0 0 22 22">
  <path fill="#d7d8db" stroke="none"
        d="M 11.80,0.33
           C 11.80,0.33 18.70,7.19 18.70,7.19
             19.14,7.62 19.15,8.33 18.71,8.77
             18.27,9.21 17.56,9.21 17.12,8.78
             17.12,8.78 11.01,2.71 11.01,2.71
             11.01,2.71 4.95,8.82 4.95,8.82
             4.51,9.26 3.80,9.27 3.37,8.83
             2.93,8.39 2.92,7.68 3.36,7.24
             3.36,7.24 10.21,0.34 10.21,0.34
             10.43,0.12 10.72,0.01 11.00,0.01
             11.29,0.01 11.58,0.12 11.80,0.33M 10.21,21.65
           C 10.21,21.65 3.31,14.80 3.31,14.80
             2.87,14.36 2.87,13.65 3.30,13.22
             3.74,12.78 4.45,12.77 4.89,13.21
             4.89,13.21 11.00,19.27 11.00,19.27
             11.00,19.27 17.06,13.16 17.06,13.16
             17.50,12.73 18.21,12.72 18.65,13.16
             19.08,13.59 19.09,14.30 18.65,14.74
             18.65,14.74 11.80,21.65 11.80,21.65
             11.58,21.87 11.29,21.98 11.01,21.98
             10.72,21.98 10.43,21.87 10.21,21.65" />
</svg>
