<?xml version="1.0" encoding="UTF-8" standalone="no"?>
<!DOCTYPE svg PUBLIC "-//W3C//DTD SVG 20010904//EN"
              "http://www.w3.org/TR/2001/REC-SVG-20010904/DTD/svg10.dtd">

<svg xmlns="http://www.w3.org/2000/svg"
     width="17.6778in" height="4.17778in"
     viewBox="0 0 1591 376">
  <path
        fill="#fff" stroke-width="0"
        d="M 1019.12,0.06
           C 1019.12,0.06 1052.38,57.94 1052.38,57.94
             1052.38,57.94 1224.75,57.94 1224.75,57.94
             1224.75,57.94 1407.06,376.03 1407.06,376.03
             1407.06,376.03 1465.26,376.00 1465.26,376.00
             1465.26,376.00 1283.19,58.00 1283.19,58.00
             1283.19,58.00 1456.04,58.00 1456.04,58.00
             1456.04,58.00 1422.75,0.06 1422.75,0.06
             1422.75,0.06 1019.12,0.06 1019.12,0.06 Z
           M 903.39,0.03
           C 903.39,0.03 1118.03,375.97 1118.03,375.97
             1118.03,375.97 1350.03,376.00 1350.03,376.00
             1350.03,376.00 1316.91,318.04 1316.91,318.04
             1316.91,318.04 1143.19,318.00 1143.19,318.00
             1143.19,318.00 961.00,0.01 961.00,0.01
             961.00,0.01 903.39,0.03 903.39,0.03 Z
           M 556.31,0.12
           C 556.31,0.12 771.64,375.91 771.64,375.91
             771.64,375.91 1059.91,375.82 1059.91,375.82
             1059.91,375.82 843.43,0.00 843.43,0.00
             843.43,0.00 787.07,0.02 787.07,0.02
             787.07,0.02 968.91,317.70 968.91,317.70
             968.91,317.70 796.30,317.77 796.30,317.77
             796.30,317.77 613.91,0.03 613.91,0.03
             613.91,0.03 556.31,0.12 556.31,0.12 Z
           M 0.00,0.00
           C 0.00,0.00 19.72,36.00 19.72,36.00
             19.72,36.00 63.15,111.00 63.15,111.00
             63.15,111.00 166.42,290.00 166.42,290.00
             166.42,290.00 196.42,342.00 196.42,342.00
             196.42,342.00 216.00,376.00 216.00,376.00
             216.00,376.00 218.00,376.00 218.00,376.00
             218.00,376.00 366.42,119.00 366.42,119.00
             366.42,119.00 413.28,38.00 413.28,38.00
             413.28,38.00 434.00,0.00 434.00,0.00
             434.00,0.00 384.00,0.00 384.00,0.00
             382.12,0.00 381.73,0.00 376.83,0.04
             372.83,6.04 368.63,12.42 366.58,16.00
             366.58,16.00 339.42,63.00 339.42,63.00
             339.42,63.00 260.99,199.00 260.99,199.00
             260.99,199.00 232.27,249.73 232.27,249.73
             228.09,256.88 221.64,268.18 218.00,275.00
             218.00,275.00 216.00,275.00 216.00,275.00
             210.43,264.74 207.87,259.83 204.13,253.30
             204.13,253.30 178.28,208.00 178.28,208.00
             178.28,208.00 94.01,62.00 94.01,62.00
             94.01,62.00 67.42,16.00 67.42,16.00
             62.27,7.12 63.96,10.09 57.52,0.00
             54.00,0.00 54.34,0.01 50.00,0.00
             50.00,0.00 0.00,0.00 0.00,0.00 Z
           M 494.00,0.00
           C 494.00,0.00 474.42,34.00 474.42,34.00
             474.42,34.00 444.42,86.00 444.42,86.00
             444.42,86.00 341.15,265.00 341.15,265.00
             341.15,265.00 299.00,338.00 299.00,338.00
             299.00,338.00 278.00,376.00 278.00,376.00
             278.00,376.00 328.00,376.00 328.00,376.00
             332.12,375.99 332.50,376.00 335.61,375.98
             338.00,371.94 339.75,368.94 345.31,359.75
             345.31,359.75 372.01,314.00 372.01,314.00
             372.01,314.00 456.28,168.00 456.28,168.00
             456.28,168.00 481.94,122.88 481.94,122.88
             486.62,114.25 490.12,107.88 494.00,101.00
             494.00,101.00 496.00,101.00 496.00,101.00
             502.56,112.81 506.56,119.94 510.44,127.00
             510.44,127.00 538.99,177.00 538.99,177.00
             538.99,177.00 617.42,313.00 617.42,313.00
             617.42,313.00 644.58,360.00 644.58,360.00
             646.86,363.67 652.25,372.39 654.46,375.99
             657.32,375.99 660.12,376.00 662.00,376.00
             662.00,376.00 712.00,376.00 712.00,376.00
             712.00,376.00 689.42,335.00 689.42,335.00
             689.42,335.00 641.42,252.00 641.42,252.00
             641.42,252.00 496.00,0.00 496.00,0.00
             496.00,0.00 494.00,0.00 494.00,0.00 Z" />
</svg>
